<svg width="1585" height="336" viewBox="0 0 1585 336" fill="none" xmlns="http://www.w3.org/2000/svg">
<g filter="url(#filter0_b)">
<path d="M100.8 87.4C80.8 87.4 68.6 90.1 64.2 95.5C54 107.9 48.9 134.7 48.9 175.9C48.9 195.5 50.7 212 54.3 225.4C58.1 238.6 62.4 247.6 67.2 252.4C72.2 257.2 79.6 259.6 89.4 259.6C99.2 259.6 108.9 258.2 118.5 255.4C128.3 252.6 135.8 249.8 141 247L149.1 242.8L157.8 262.6C155.8 264 153 265.7 149.4 267.7C146 269.7 138.7 272.4 127.5 275.8C116.3 279.2 105 280.9 93.6 280.9C45.6 280.9 21.6 245.6 21.6 175C21.6 125 32 92.4 52.8 77.2C59.4 72.4 66.3 69.1 73.5 67.3C80.9 65.5 92 64.6 106.8 64.6C121.8 64.6 135.9 66.2 149.1 69.4L146.1 91C127.7 88.6 112.6 87.4 100.8 87.4ZM206.402 277V68.5H231.602L230.702 159.7H318.602L318.002 68.5H342.902V277H318.002L318.902 181.9H230.702L231.602 277H206.402ZM402.614 277H375.914L434.714 68.5H466.214L525.014 277H498.014L483.614 221.2H417.314L402.614 277ZM478.814 200.2L451.214 88.9H449.414L421.814 200.2H478.814ZM560.309 277V68.5H585.509L584.009 254.5L659.309 253.9V277H560.309ZM694.195 277V68.5H719.395L717.895 254.5L793.195 253.9V277H694.195ZM1030.23 68.5H1065.33L1148.73 253.3H1150.23L1145.73 68.5H1170.33V277H1135.23L1052.13 92.2H1050.93L1054.83 277H1030.23V68.5ZM1266.26 249.4C1271.86 255.8 1282.56 259 1298.36 259C1314.36 259 1326.06 257.5 1333.46 254.5V188.5L1301.66 187V168.4H1357.46V269.2C1342.26 277 1323.46 280.9 1301.06 280.9C1292.06 280.9 1283.96 280 1276.76 278.2C1269.56 276.6 1262.46 273.4 1255.46 268.6C1248.66 263.8 1242.96 257.4 1238.36 249.4C1228.36 231.8 1223.36 206 1223.36 172C1223.36 129 1230.96 99.9 1246.16 84.7C1253.76 77.1 1262.16 71.9 1271.36 69.1C1280.56 66.1 1293.56 64.6 1310.36 64.6C1327.36 64.6 1342.66 66.3 1356.26 69.7L1353.26 91.3C1330.66 88.7 1313.96 87.4 1303.16 87.4C1283.36 87.4 1270.86 90.1 1265.66 95.5C1255.66 105.9 1250.56 131.2 1250.36 171.4C1250.56 211.8 1255.86 237.8 1266.26 249.4ZM1416.95 277V68.5H1519.25V91L1442.15 90.1L1440.65 160.3H1512.05V181.6H1440.65L1442.15 255.1L1519.25 254.5V277H1416.95Z" fill="#6F6F6F"/>
</g>
<path d="M937.756 237.788L937.756 277L852.548 277L845.52 237.788L937.756 237.788ZM937.756 181.472L937.756 220.703L833.905 220.703L826.507 181.472L937.756 181.472ZM817 164.424L817 125.194L937.774 125.194L937.774 164.424L817 164.424ZM937.756 68.8591L937.756 108.089L833.812 108.089L840.84 68.8591L937.756 68.8591ZM954.882 164.368L954.882 68.8962L994 68.8962L994 164.368L954.882 164.368Z" fill="#63DC3E"/>
<defs>
<filter id="filter0_b" x="17.6001" y="60.6001" width="1505.65" height="224.3" filterUnits="userSpaceOnUse" color-interpolation-filters="sRGB">
<feFlood flood-opacity="0" result="BackgroundImageFix"/>
<feGaussianBlur in="BackgroundImage" stdDeviation="2"/>
<feComposite in2="SourceAlpha" operator="in" result="effect1_backgroundBlur"/>
<feBlend mode="normal" in="SourceGraphic" in2="effect1_backgroundBlur" result="shape"/>
</filter>
</defs>
</svg>
